# xmcd
#
# Track frame offsets:
#	150
#	18292
#	36795
#	52185
#	73275
#	95668
#	114389
#	132788
#	145894
#	167013
#	188107
#
# Disc length: 2750 seconds
# Revision: 0
# Processed by: cddbd v1.5.2PL0 Copyright (c) Steve Scherf et al.
# Submitted via: dBpowerAMP V12.0
#
DISCID=9c0abc0b
DTITLE=Josh Garrett Band, The - String of Problems
DYEAR=2011
DGENRE=Blues
TTITLE0=String of Problems
TTITLE1=I Miss My Baby
TTITLE2=Hard Work
TTITLE3=Don't Ignore Me
TTITLE4=Make It Up As We Go
TTITLE5=Lily Marie
TTITLE6=Proud of What They'd Done
TTITLE7=Sleepin On the Levee
TTITLE8=Sugarcane
TTITLE9=Stand Up On My Own
TTITLE10=After All These Years
EXTD=
EXTT0=
EXTT1=
EXTT2=
EXTT3=
EXTT4=
EXTT5=
EXTT6=
EXTT7=
EXTT8=
EXTT9=
EXTT10=
PLAYORDER=
